<svg xmlns="http://www.w3.org/2000/svg" xmlns:xlink="http://www.w3.org/1999/xlink" width="16" height="16" viewBox="0 0 16 16"><defs><style>.a{opacity:0.7;}.b{fill:none;}.c{fill:url(#a);}</style><linearGradient id="a" x1="0.5" x2="0.5" y2="1" gradientUnits="objectBoundingBox"><stop offset="0" stop-color="#bffaff"/><stop offset="1" stop-color="#25daeb"/></linearGradient></defs><g class="a" transform="translate(-1044 -288)"><rect class="b" width="16" height="16" transform="translate(1044 288)"/><g transform="translate(1044.363 288.334)"><path class="c" d="M1.274,14A1.275,1.275,0,0,1,0,12.729V2.548A1.276,1.276,0,0,1,1.274,1.273H4.135v-.7a.574.574,0,0,1,1.148,0v.7H9.864v-.7a.572.572,0,0,1,1.145,0v.7H14a1.276,1.276,0,0,1,1.274,1.274V12.729A1.275,1.275,0,0,1,14,14ZM1.115,2.548V12.729a.149.149,0,0,0,.159.158H14a.149.149,0,0,0,.159-.158V2.548A.15.15,0,0,0,14,2.389H11.072v.572a.572.572,0,1,1-1.144,0V2.389H5.313v.572a.572.572,0,1,1-1.145,0V2.389H1.274A.15.15,0,0,0,1.115,2.548Zm3.943,8.94a.574.574,0,0,1,0-1.147h5.25a.574.574,0,1,1,0,1.147ZM7.033,9.609a.516.516,0,0,1,0-.764l3.784-3.817a.562.562,0,0,1,.8.793L7.826,9.609a.555.555,0,0,1-.794,0Z" transform="translate(0 0.666)"/></g></g></svg>
