<svg xmlns="http://www.w3.org/2000/svg" xmlns:xlink="http://www.w3.org/1999/xlink" width="16" height="16" viewBox="0 0 16 16"><defs><style>.a{fill:none;}.b{fill:url(#a);}</style><linearGradient id="a" x1="0.5" x2="0.5" y2="1" gradientUnits="objectBoundingBox"><stop offset="0" stop-color="#bffaff"/><stop offset="1" stop-color="#25daeb"/></linearGradient></defs><g transform="translate(-395 -868)"><rect class="a" width="16" height="16" transform="translate(395 868)"/><path class="b" d="M15.54,4.563H12.661V3.6a.96.96,0,0,0-.96-.96H5.942a.96.96,0,0,0-.96.96v.96H2.1a.96.96,0,0,0-.96.96v8.638a.96.96,0,0,0,.96.96H15.54a.96.96,0,0,0,.96-.96V5.522A.96.96,0,0,0,15.54,4.563Zm-9.6-.96H11.7v.96H5.942Zm9.6,10.558H2.1V10.322H7.382v.48a.96.96,0,0,0,.96.96H9.3a.96.96,0,0,0,.96-.96v-.48H15.54ZM8.342,10.8V8.882H9.3V10.8Zm1.92-1.44v-.48a.96.96,0,0,0-.96-.96h-.96a.96.96,0,0,0-.96.96v.48H2.1V5.522H15.54V9.362Z" transform="translate(394.178 867.118)"/></g></svg>