<svg xmlns="http://www.w3.org/2000/svg" xmlns:xlink="http://www.w3.org/1999/xlink" width="16" height="16" viewBox="0 0 16 16"><defs><style>.a{opacity:0.7;}.b{fill:none;}.c{fill:url(#a);}</style><linearGradient id="a" x1="0.5" x2="0.5" y2="1" gradientUnits="objectBoundingBox"><stop offset="0" stop-color="#bffaff"/><stop offset="1" stop-color="#25daeb"/></linearGradient></defs><g class="a" transform="translate(-1072 -288)"><rect class="b" width="16" height="16" transform="translate(1072 288)"/><g transform="translate(1071.398 287.333)"><path class="c" d="M.583,12.822A.6.6,0,0,1,0,12.239V.582A.6.6,0,0,1,.583,0H14.569a.6.6,0,0,1,.582.582V12.239a.6.6,0,0,1-.582.583Zm.582-1.165H14.027V1.165H1.165ZM7.189,8.937a.583.583,0,1,1,0-1.165h5.438a.583.583,0,0,1,0,1.165Zm-4.509-.43a.586.586,0,0,1-.312-.735L4.311,3.109a.561.561,0,0,1,.505-.352.589.589,0,0,1,.546.271l1.4,2.45h5.867a.583.583,0,0,1,0,1.165H6.409A.671.671,0,0,1,5.9,6.373L4.933,4.662,3.417,8.277a.645.645,0,0,1-.5.271A.468.468,0,0,1,2.681,8.507Z" transform="translate(1.026 2.256)"/></g></g></svg>
