<svg xmlns="http://www.w3.org/2000/svg" xmlns:xlink="http://www.w3.org/1999/xlink" width="16" height="16" viewBox="0 0 16 16"><defs><style>.a{opacity:0.7;}.b{fill:none;}.c{fill:url(#a);}</style><linearGradient id="a" x1="0.5" x2="0.5" y2="1" gradientUnits="objectBoundingBox"><stop offset="0" stop-color="#bffaff"/><stop offset="1" stop-color="#25daeb"/></linearGradient></defs><g class="a" transform="translate(-1096 -288)"><rect class="b" width="16" height="16" transform="translate(1096 288)"/><g transform="translate(1095.208 288.048)"><path class="c" d="M11.717,13.438a.676.676,0,0,1-.481-.2.666.666,0,0,1-.192-.484v-4.5a.686.686,0,0,1,.309-.67.688.688,0,0,1,1.052.67v4.562a.686.686,0,0,1-.685.629Zm-3.864-.2a.664.664,0,0,1-.191-.484V10.307a.686.686,0,0,1,1.36,0V12.75a.686.686,0,0,1-.688.687A.67.67,0,0,1,7.852,13.234Zm-3.384,0a.668.668,0,0,1-.195-.484V7.188a.686.686,0,0,1,1.361,0V12.74a.681.681,0,0,1-.685.7A.671.671,0,0,1,4.468,13.234Zm-3.387,0A.664.664,0,0,1,.89,12.75V9.236a.687.687,0,1,1,1.361,0V12.75a.686.686,0,0,1-.685.687A.677.677,0,0,1,1.082,13.234ZM.676,6.625a.675.675,0,0,1-.552-.27A.689.689,0,0,1,.292,5.4L5.183,1.624a.7.7,0,0,1,.844,0L8.278,3.46l2.51-2.095H9.749A.689.689,0,0,1,9.749,0h2.6a.69.69,0,0,1,.688.676V3.258a.687.687,0,0,1-1.374,0V2.413L8.748,4.868a.675.675,0,0,1-.864,0L5.634,3.021l-4.5,3.455A.7.7,0,0,1,.7,6.625Z" transform="translate(2.274 1.233)"/></g></g></svg>
