<svg xmlns="http://www.w3.org/2000/svg" xmlns:xlink="http://www.w3.org/1999/xlink" width="16" height="16" viewBox="0 0 16 16"><defs><style>.a{fill:none;}.b{fill:url(#a);}</style><linearGradient id="a" x1="0.5" x2="0.5" y2="1" gradientUnits="objectBoundingBox"><stop offset="0" stop-color="#ffdb7b"/><stop offset="1" stop-color="#ff9439"/></linearGradient></defs><g transform="translate(-1566 -539)"><rect class="a" width="16" height="16" transform="translate(1566 539)"/><g transform="translate(1566.017 538.607)"><path class="b" d="M8.411,9.925a4.912,4.912,0,0,1-1.723,0l-3.115,4.5L2.568,12.062,0,11.955,3.156,7.388A5,5,0,1,1,12.552,5a4.956,4.956,0,0,1-.612,2.393L15.1,11.955l-2.567.106-1.005,2.367Zm.739-.191,2.226,3.214.673-1.583,1.72-.067-2.253-3.26A4.974,4.974,0,0,1,9.15,9.733ZM1.33,11.3l1.723.067.67,1.583L5.946,9.733a4.99,4.99,0,0,1-2.366-1.7ZM3.265,5A4.284,4.284,0,1,0,7.549.718,4.287,4.287,0,0,0,3.265,5ZM4.39,5A3.158,3.158,0,1,1,7.549,8.153,3.162,3.162,0,0,1,4.39,5Zm.721,0A2.438,2.438,0,1,0,7.549,2.56,2.439,2.439,0,0,0,5.112,5Z" transform="translate(0.434 1.178)"/></g></g></svg>