<svg xmlns="http://www.w3.org/2000/svg" width="74" height="52" viewBox="0 0 74 52"><defs><style>.a{fill:#bed1ff;}.b{fill:#5178d0;}</style></defs><g transform="translate(-738 -459)"><rect class="a" width="74" height="52" transform="translate(738 459)"/><path class="b" d="M0,1.322A1.326,1.326,0,0,1,1.312,0H25.132a1.315,1.315,0,0,1,1.312,1.322V19.833a1.326,1.326,0,0,1-1.312,1.322H1.312A1.314,1.314,0,0,1,0,19.833ZM7.933,2.644a2.645,2.645,0,1,0,2.645,2.645A2.645,2.645,0,0,0,7.933,2.644Zm-.061,7.941c-2.584-.008-5.5,7.925-5.5,7.925l21.427,0L23.792,5.08c-6.6.209-10.406,8.552-10.406,8.552s-2.93-3.04-5.514-3.048Z" transform="translate(761.778 474.422)"/></g></svg>